:version 1.10
:name ASF
:units
  mass 1
  length 1
  angle deg
:documentation
  ASF file generated by Kaydara
:root
  axis xyz
  order  tx ty tz rx ry rz
  position 0 0 0
  orientation 0 0 0
:bonedata
  begin
    id 1
    name RightUpLegDummy
    direction -1 2.30186e-007 8.31532e-007
    length 4.04083
    axis 0 0 0 xyz
  end
  begin
    id 2
    name RightUpLeg
    direction -0.000919234 -0.999985 0.00544864
    length 17.4221
    axis -3.80308 -0.00076134 -0.0523649 xyz
    dof rx ry rz
  end
  begin
    id 3
    name RightLeg
    direction -0.000919271 -0.999984 -0.00555045
    length 17.1239
    axis 4.00314 0.0181274 -0.183583 xyz
    dof rx ry rz
  end
  begin
    id 4
    name RightFoot
    direction -2.57843e-005 -4.04509e-007 1
    length 6.72091
    axis 8.18909e-005 -0.122003 -0.403008 xyz
    dof rx ry rz
  end
  begin
    id 5
    name RightToes
    direction 0.00116825 -0.014069 0.9999
    length 3.85082
    axis 0.000514414 0.540638 -0.356797 xyz
    dof rx ry rz
  end
  begin
    id 6
    name SpineDummy
    direction 0.0168869 0.966876 -0.254689
    length 6.99894
    axis 0 0 0 xyz
  end
  begin
    id 7
    name Spine
    direction -0.0132008 0.999903 0.00446247
    length 11.1999
    axis -0.00148109 0.00725429 0.756411 xyz
    dof rx ry rz
  end
  begin
    id 8
    name Spine1
    direction 0 0 0
    length 0
    axis -0.000934958 0.0245693 1.46543 xyz
    dof rx ry rz
  end
  begin
    id 9
    name HEadDummy
    direction -0.0255732 0.999672 0.00128215
    length 3.43865
    axis -0.000934958 0.0245693 1.46543 xyz
  end
  begin
    id 10
    name HEad
    direction -0.0472656 0.980052 0.19304
    length 5.12695
    axis -0.000934954 0.0245693 1.46543 xyz
    dof rx ry rz
  end
  begin
    id 11
    name LeftShoulder1Dummy
    direction 0.953098 0.301717 -0.023914
    length 3.68488
    axis -0.000934958 0.0245693 1.46543 xyz
  end
  begin
    id 12
    name LeftShoulder1
    direction 0.962466 0.271167 0.0112566
    length 3.13809
    axis -0.000934958 0.0245693 1.46543 xyz
    dof rx ry rz
  end
  begin
    id 13
    name LeftArm
    direction 0.999943 0.00455037 -0.00961766
    length 11.3419
    axis -23.1648 0.685459 1.22814 xyz
    dof rx ry rz
  end
  begin
    id 14
    name LeftForeArm
    direction 0.999332 0.0131969 0.0340885
    length 8.70632
    axis -9.90633 0.618216 0.0826942 xyz
    dof rx ry rz
  end
  begin
    id 15
    name LeftHand
    direction 0.994373 -0.0366703 0.0993905
    length 5.32135
    axis 0.00675269 0.680415 0.445699 xyz
    dof rx ry rz
  end
  begin
    id 16
    name RightShoulderDummy
    direction -0.967298 0.252589 -0.0230903
    length 3.68488
    axis -0.000934958 0.0245693 1.46543 xyz
  end
  begin
    id 17
    name RightShoulder
    direction -0.975062 0.221602 0.0120823
    length 3.13809
    axis 0.216257 0.0246515 1.45863 xyz
    dof rx ry rz
  end
  begin
    id 18
    name RightArm
    direction -0.99886 -0.00851186 -0.0469687
    length 10.3947
    axis -23.196 0.23503 -0.532632 xyz
    dof rx ry rz
  end
  begin
    id 19
    name RightForeArm
    direction -0.99909 0.00114866 0.0426317
    length 8.68355
    axis -9.91764 -0.134943 0.610517 xyz
    dof rx ry rz
  end
  begin
    id 20
    name RightHand
    direction -0.992888 -0.0489538 0.10852
    length 5.28593
    axis -0.00275396 -0.197403 0.246414 xyz
    dof rx ry rz
  end
  begin
    id 21
    name LeftUpLegDummy
    direction 1 -2.30186e-007 -8.31532e-007
    length 4.04083
    axis 0 0 0 xyz
  end
  begin
    id 22
    name LeftUpLeg
    direction -0.000920097 -1 2.79241e-006
    length 17.4221
    axis -3.48782 0.00143434 -0.0532288 xyz
    dof rx ry rz
  end
  begin
    id 23
    name LeftLeg
    direction -0.000920097 -1 2.7912e-006
    length 17.1239
    axis 3.68162 -0.00806512 -0.0529896 xyz
    dof rx ry rz
  end
  begin
    id 24
    name LeftFoot
    direction -2.57845e-005 -3.987e-007 1
    length 6.72091
    axis 3.02372e-005 -0.00147829 -0.214229 xyz
    dof rx ry rz
  end
  begin
    id 25
    name LeftToes
    direction 0.00813577 -0.00488255 0.999955
    length 3.85048
    axis 3.89895e-005 -0.0014783 -0.214229 xyz
    dof rx ry rz
  end
:hierarchy
  begin
    root RightUpLegDummy SpineDummy LeftUpLegDummy
    RightUpLegDummy RightUpLeg
    RightUpLeg RightLeg
    RightLeg RightFoot
    RightFoot RightToes
    SpineDummy Spine
    Spine Spine1
    Spine1 HEadDummy LeftShoulder1Dummy RightShoulderDummy
    HEadDummy HEad
    LeftShoulder1Dummy LeftShoulder1
    LeftShoulder1 LeftArm
    LeftArm LeftForeArm
    LeftForeArm LeftHand
    RightShoulderDummy RightShoulder
    RightShoulder RightArm
    RightArm RightForeArm
    RightForeArm RightHand
    LeftUpLegDummy LeftUpLeg
    LeftUpLeg LeftLeg
    LeftLeg LeftFoot
    LeftFoot LeftToes
  end

:SAMPLES-PER-SECOND 30
:FULLY-SPECIFIED
:DEGREES
62
root  -17.5866 34.8043 -14.8062 -173.658 2.58719 179.295
RightUpLeg  -3.06108 -13.4436 -3.26611
RightLeg  1.27748 -2.45607 0.103709
RightFoot  6.82802 0.0372023 -0.127537
RightToes  -25.9746 -0.120729 -0.220398
Spine  -3.2898 0.163153 -0.740138
Spine1  -6.14365 0.533123 -0.620044
HEad  -65.9416 -8.99941 10.3698
LeftShoulder1  -1.94126e-019 -3.10601e-018 -2.51263e-017
LeftArm  19.6135 -16.9428 -79.5226
LeftForeArm  162.009 -58.0955 -163.137
LeftHand  -1.03687 -0.133767 21.7563
RightShoulder  -4.96962e-017 0 -2.36833e-017
RightArm  14.3417 14.574 81.8281
RightForeArm  -173.121 62.5363 162.543
RightHand  -0.0250322 -5.29414 -34.1148
LeftUpLeg  -3.69627 0.829872 2.40627
LeftLeg  5.12339 15.6084 0.38725
LeftFoot  5.08887 -0.0651536 1.61081
LeftToes  -20.5283 1.7763e-006 6.54387e-008
63
root  -17.587 34.8003 -14.7942 -173.842 2.62787 179.289
RightUpLeg  -2.96602 -13.2369 -3.30699
RightLeg  1.41229 -2.61387 0.104229
RightFoot  6.78275 0.0386484 -0.148204
RightToes  -26.0706 -0.120729 -0.220324
Spine  -3.17272 0.113691 -0.697314
Spine1  -5.85302 0.435048 -0.562928
HEad  -66.8669 -8.25221 10.4847
LeftShoulder1  -1.94126e-019 -3.10601e-018 -2.51263e-017
LeftArm  12.4763 -14.8957 -78.2615
LeftForeArm  165.104 -56.4035 -164.384
LeftHand  -1.03364 -1.25705 18.1349
RightShoulder  -4.96962e-017 0 -2.36833e-017
RightArm  7.34811 13.4622 81.6385
RightForeArm  -170.968 61.1732 163.667
RightHand  -0.195814 -4.66087 -30.6322
LeftUpLeg  -3.57323 0.8862 2.40259
LeftLeg  5.21811 15.5932 0.412347
LeftFoot  5.08944 -0.0651959 1.60762
LeftToes  -20.7555 1.7763e-006 6.54387e-008
64
root  -17.5848 34.8014 -14.7974 -173.873 2.64587 179.302
RightUpLeg  -2.9381 -13.3068 -3.30165
RightLeg  1.41975 -2.52462 0.100353
RightFoot  6.77654 0.0382431 -0.142412
RightToes  -25.9896 -0.120729 -0.220235
Spine  -3.26989 0.137975 -0.669947
Spine1  -5.98025 0.498747 -0.528383
HEad  -67.579 -7.8653 10.443
LeftShoulder1  -1.94126e-019 -3.10601e-018 -2.51263e-017
LeftArm  5.05666 -12.7412 -75.8546
LeftForeArm  162.393 -55.352 -164.732
LeftHand  -0.948437 -0.396755 19.0606
RightShoulder  -4.96962e-017 0 -2.36833e-017
RightArm  -0.621637 11.7535 79.1747
RightForeArm  -174.708 59.9119 164.143
RightHand  0.067867 -5.63534 -31.0693
LeftUpLeg  -3.53707 1.03582 2.42601
LeftLeg  5.21531 15.4579 0.408101
LeftFoot  5.09547 -0.0646368 1.59579
LeftToes  -20.7681 1.7763e-006 6.54387e-008
65
root  -17.5822 34.8048 -14.8016 -173.705 2.5576 179.318
RightUpLeg  -3.01263 -13.5833 -3.24891
RightLeg  1.26903 -2.34026 0.0991765
RightFoot  6.85865 0.0373944 -0.130282
RightToes  -25.9429 -0.120729 -0.220131
Spine  -3.42907 0.192289 -0.680597
Spine1  -6.26196 0.602607 -0.560009
HEad  -67.6253 -8.03366 10.5892
LeftShoulder1  -1.94126e-019 -3.10601e-018 -2.51263e-017
LeftArm  -1.2735 -10.6692 -73.2129
LeftForeArm  162.557 -54.9452 -164.958
LeftHand  -0.880691 0.490553 20.8295
RightShoulder  -4.96962e-017 0 -2.36833e-017
RightArm  -7.73089 9.72724 76.2481
RightForeArm  -176.148 59.4049 164.326
RightHand  0.510117 -7.12937 -32.9676
LeftUpLeg  -3.66076 0.891053 2.43971
LeftLeg  5.111 15.5304 0.382041
LeftFoot  5.12248 -0.0655179 1.60703
LeftToes  -20.5839 1.7763e-006 6.54387e-008
66
root  -17.5814 34.808 -14.8004 -173.595 2.47079 179.3
RightUpLeg  -3.02859 -13.6325 -3.23822
RightLeg  1.1027 -2.38161 0.107807
RightFoot  6.95726 0.0382635 -0.142703
RightToes  -26.0586 -0.120729 -0.220014
Spine  -3.50907 0.126631 -0.708789
Spine1  -6.40473 0.466436 -0.61424
HEad  -67.1951 -8.09543 10.5216
LeftShoulder1  -1.94126e-019 -3.10601e-018 -2.51263e-017
LeftArm  -5.1142 -9.51116 -71.3198
LeftForeArm  162.084 -55.438 -164.658
LeftHand  -0.869554 0.935989 22.5689
RightShoulder  -4.96962e-017 0 -2.36833e-017
RightArm  -10.7392 8.95205 75.1043
RightForeArm  -178.227 60.4138 163.511
RightHand  0.792355 -7.90286 -35.2018
LeftUpLeg  -3.69038 0.676935 2.41669
LeftLeg  4.91965 15.6739 0.333793
LeftFoot  5.19616 -0.0676493 1.63838
LeftToes  -20.4299 1.7763e-006 6.54387e-008
